PathFileType	4	(X/Y/Z)	SUBJ62_3_walk_RCNL2025.trc
DataRate	CameraRate	NumFrames	NumMarkers	Units	OrigDataRate	OrigDataStartFrame	OrigNumFrames
100	100	12	25	mm	100	40	316
Frame#	Time	R_Shoulder			L_Shoulder			C7			J_Notch			R_Elbow			L_Elbow			R_Wrist			L_Wrist			R_Asis			L_Asis			Sacral			Thoracic			Sternum			R_Thigh_Lateral			R_Knee_Lateral			R_Shank_Lateral			R_Ankle_Lateral			R_Heel			R_Toe			L_Thigh_Lateral			L_Knee_Lateral			L_Shank_Lateral			L_Ankle_Lateral			L_Heel			L_Toe		
		X1	Y1	Z1	X2	Y2	Z2	X3	Y3	Z3	X4	Y4	Z4	X5	Y5	Z5	X6	Y6	Z6	X7	Y7	Z7	X8	Y8	Z8	X9	Y9	Z9	X10	Y10	Z10	X11	Y11	Z11	X12	Y12	Z12	X13	Y13	Z13	X14	Y14	Z14	X15	Y15	Z15	X16	Y16	Z16	X17	Y17	Z17	X18	Y18	Z18	X19	Y19	Z19	X20	Y20	Z20	X21	Y21	Z21	X22	Y22	Z22	X23	Y23	Z23	X24	Y24	Z24	X25	Y25	Z25
40	0.39000000	-1595.519165	1247.996582	278.040253	-1612.211670	1277.143311	-63.328812	-1673.250610	1329.093140	108.539261	-1544.566040	1240.010620	100.159721	-1724.919189	971.325195	322.264008	-1550.014648	988.021973	-147.052155	-1715.539124	749.531586	320.622986	-1379.147644	850.782318	-121.941769	-1533.862671	850.232910	226.014999	-1551.879517	844.312683	-33.519138	-1719.224976	847.915283	108.930077	-1738.366455	1133.187134	99.479324	-1525.219849	1039.406006	95.696709	-1492.712280	467.048096	288.080688	-1465.484009	421.369202	211.983688	-1430.817017	246.826996	245.577942	-1402.255005	57.508034	170.384094	-1451.670410	36.073994	130.892487	-1297.072266	52.224911	152.155502	-1709.546753	466.214752	-65.440559	-1728.278931	405.364471	-14.265350	-1824.230225	234.306625	-39.815834	-1928.886475	105.916725	34.259090	-1974.780518	145.247269	74.142296	-1857.391479	31.385614	54.119667
41	0.40000000	-1583.677124	1249.463989	279.049377	-1599.897217	1278.833496	-62.154202	-1661.397827	1330.554077	109.635376	-1532.604126	1241.644531	101.444199	-1710.387695	971.602051	323.214386	-1540.647949	988.725586	-145.391678	-1699.021545	749.946869	321.782791	-1372.525330	848.070068	-121.011547	-1521.966675	852.685730	227.290192	-1538.863403	845.826477	-31.810289	-1706.874146	849.198608	109.171654	-1726.282593	1134.582764	100.200851	-1512.951538	1041.106812	96.907372	-1479.670288	469.679138	289.064575	-1454.388794	422.504303	212.816513	-1423.450439	247.040009	246.006058	-1400.739746	57.054913	170.324860	-1451.091553	36.874210	131.336166	-1295.848145	49.380928	151.658829	-1690.336304	465.435944	-66.359879	-1709.085938	404.389771	-15.730777	-1810.431641	236.892593	-41.130161	-1920.026978	112.471344	33.171009	-1963.259644	154.398285	73.293358	-1854.965698	31.919451	54.010155
42	0.41000000	-1571.878540	1251.090698	279.983185	-1587.599487	1280.629028	-60.994980	-1649.610107	1332.081299	110.661514	-1520.691772	1243.361694	102.652496	-1695.638916	971.961609	324.235016	-1531.508667	989.536377	-143.756165	-1681.883667	750.501465	323.044434	-1366.509155	845.131317	-120.179855	-1510.225830	855.200867	228.665527	-1526.007568	847.448914	-29.993593	-1694.645508	850.545593	109.463577	-1714.266724	1136.066040	100.916405	-1500.778931	1042.878174	98.088562	-1467.062256	472.199188	290.060669	-1443.956543	423.459229	213.671814	-1416.320312	247.234695	246.450806	-1399.445435	56.742489	170.284042	-1450.663208	37.659630	131.796265	-1294.895996	47.099476	151.220901	-1670.152344	464.485687	-67.498749	-1689.065674	403.318604	-17.326052	-1795.636353	239.628448	-42.593658	-1909.912109	119.218826	31.879354	-1950.351440	163.542908	72.388519	-1851.489624	32.904701	53.480755
43	0.42000000	-1560.114624	1252.814941	280.835175	-1575.369751	1282.468506	-59.867100	-1637.896851	1333.627075	111.618805	-1508.844482	1245.109619	103.763733	-1680.705566	972.366882	325.339752	-1522.594849	990.403687	-142.155991	-1664.158936	751.165985	324.386139	-1361.067078	841.997162	-119.453911	-1498.628296	857.665833	230.110153	-1513.360840	849.112793	-28.130581	-1682.557007	851.909424	109.843842	-1702.335449	1137.589355	101.643272	-1488.716797	1044.665161	99.216438	-1455.175903	474.447144	291.019989	-1434.315308	424.169525	214.501923	-1409.539185	247.355438	246.849533	-1398.339722	56.537876	170.227509	-1450.333618	38.387741	132.226547	-1294.158203	45.340775	150.807571	-1649.195190	463.414246	-68.804573	-1668.355225	402.207855	-18.985828	-1779.863647	242.515305	-44.182552	-1898.500610	126.077713	30.361361	-1936.127563	172.518494	71.395386	-1846.624756	34.466328	52.389095
44	0.43000000	-1548.372803	1254.572632	281.600494	-1563.247070	1284.290283	-58.788330	-1626.259766	1335.155762	112.510246	-1497.074219	1246.839844	104.762299	-1665.612915	972.777771	326.539825	-1513.906860	991.273315	-140.597855	-1645.885681	751.907806	325.786011	-1356.163391	838.698059	-118.839561	-1487.160278	859.980530	231.588348	-1500.958984	850.755066	-26.289545	-1670.625122	853.250183	110.342194	-1690.503784	1139.115723	102.394455	-1476.780884	1046.418213	100.269539	-1444.274536	476.295471	291.901764	-1425.542480	424.612335	215.266037	-1403.213135	247.372162	247.156403	-1397.402710	56.412083	170.133926	-1450.069214	39.029560	132.589386	-1293.589966	44.040344	150.394699	-1627.708740	462.295654	-70.203438	-1647.099243	401.135376	-20.639307	-1763.150879	245.565063	-45.864422	-1885.768066	132.961197	28.613691	-1920.686646	181.164902	70.297852	-1840.032227	36.696175	50.617252
45	0.44000000	-1536.640625	1256.303711	282.275879	-1551.257446	1286.037842	-57.777267	-1614.694824	1336.644897	113.339272	-1485.389893	1248.510742	105.638832	-1650.378174	973.156494	327.842041	-1505.448364	992.094238	-139.085129	-1627.104492	752.696472	327.223679	-1351.760498	835.264435	-118.340183	-1475.808472	862.067017	233.062485	-1488.822876	852.325562	-24.538588	-1658.862915	854.538025	110.976738	-1678.785400	1140.619873	103.177574	-1464.988037	1048.096313	101.230888	-1434.548828	477.667969	292.677368	-1417.655396	424.802795	215.934296	-1397.422974	247.278610	247.347870	-1396.620850	56.342167	169.995819	-1449.849976	39.570667	132.858063	-1293.156616	43.120335	149.970734	-1605.959717	461.221497	-71.608856	-1625.438599	400.195343	-22.218624	-1745.551392	248.800323	-47.603672	-1871.703735	139.773956	26.652811	-1904.137451	189.328125	69.098610	-1831.404419	39.630684	48.091816
46	0.45000000	-1524.909180	1257.958008	282.859711	-1539.415161	1287.663818	-56.851471	-1603.195679	1338.083496	114.109047	-1473.797729	1250.090332	106.390610	-1635.009521	973.472046	329.247711	-1497.224731	992.824341	-137.618744	-1607.856323	753.509155	328.681488	-1347.820679	831.727264	-117.955647	-1464.561157	863.876221	234.496719	-1476.958496	853.793091	-22.937641	-1647.278931	855.755371	111.751709	-1667.191284	1142.088379	103.994743	-1453.355469	1049.669189	102.089844	-1426.078247	478.547913	293.332367	-1410.612183	424.783417	216.490021	-1392.212280	247.086029	247.423050	-1395.982666	56.311775	169.817368	-1449.663940	40.009983	133.017899	-1292.830078	42.499256	149.535583	-1584.210938	460.290527	-72.932579	-1603.501221	399.488953	-23.666197	-1727.129883	252.248810	-49.366985	-1856.307373	146.408081	24.511738	-1886.585327	196.862473	67.815964	-1820.495605	43.235081	44.799408
47	0.46000000	-1513.176025	1259.500122	283.352173	-1527.727417	1289.132935	-56.025204	-1591.756592	1339.469482	114.822342	-1462.302612	1251.557495	107.021294	-1619.507202	973.704712	330.752258	-1489.242065	993.435181	-136.198105	-1588.180542	754.334503	330.144592	-1344.306763	828.118835	-117.681610	-1453.411255	865.390015	235.860947	-1465.357544	855.148071	-21.530838	-1635.875488	856.897034	112.656631	-1655.729858	1143.516479	104.843239	-1441.897705	1051.118408	102.843216	-1418.813965	478.975342	293.865936	-1404.323608	424.610779	216.929398	-1387.587036	246.815262	247.399719	-1395.475952	56.310635	169.610291	-1449.504395	40.356983	133.066010	-1292.586426	42.099545	149.097046	-1562.692871	459.596313	-74.095390	-1581.395020	399.112732	-24.939798	-1707.956543	255.931839	-51.127182	-1839.588013	152.740952	22.234455	-1868.121948	203.632492	66.476204	-1807.144653	47.398808	40.794529
48	0.47000000	-1501.446289	1260.910889	283.755920	-1516.198486	1290.423950	-55.307453	-1580.374756	1340.806274	115.481918	-1450.908081	1252.902100	107.539848	-1603.865356	973.847900	332.345306	-1481.506104	993.914062	-134.822021	-1568.114136	755.175140	331.599930	-1341.182800	824.472870	-117.509338	-1442.357666	866.618835	237.134476	-1453.999756	856.402039	-20.340696	-1624.648560	857.968750	113.666817	-1644.406372	1144.905396	105.716606	-1430.625000	1052.436768	103.495415	-1412.588501	479.034546	294.288605	-1398.670288	424.343231	217.259369	-1383.521240	246.489914	247.307739	-1395.085449	56.333466	169.389374	-1449.367188	40.628029	133.009964	-1292.405396	41.852749	148.666580	-1541.577637	459.215668	-75.035942	-1559.204102	399.145508	-26.014862	-1688.099365	259.848694	-52.864323	-1821.563965	158.636581	19.869734	-1848.821289	209.515411	65.104446	-1791.285522	51.944550	36.198036
49	0.48000000	-1489.733643	1262.187012	284.076141	-1504.833618	1291.530029	-54.700871	-1569.052002	1342.099243	116.090889	-1439.616943	1254.124756	107.958939	-1588.075073	973.908264	334.011383	-1474.020752	994.263672	-133.489288	-1547.691284	756.046997	333.034531	-1338.413879	820.825043	-117.426025	-1431.406860	867.594910	238.308304	-1442.855713	857.583496	-19.365297	-1613.588623	858.984680	114.745323	-1633.222168	1146.258301	106.605927	-1419.540771	1053.627930	104.057411	-1407.150024	478.835175	294.618561	-1393.523315	424.032288	217.494232	-1379.967651	246.131699	247.181549	-1394.793823	56.378738	169.168610	-1449.249512	40.842617	132.865494	-1292.268921	41.702484	148.255798	-1520.961914	459.200409	-75.716438	-1536.987915	399.637543	-26.884064	-1667.618652	263.961090	-54.564281	-1802.265747	163.950867	17.465885	-1828.741821	214.403717	63.717014	-1772.944946	56.648907	31.186132
50	0.49000000	-1478.058350	1263.339111	284.320740	-1493.641602	1292.457397	-54.201908	-1557.794922	1343.352539	116.653069	-1428.431641	1255.234497	108.293037	-1572.127075	973.903992	335.730835	-1466.788086	994.499573	-132.198624	-1526.943970	756.977478	334.433655	-1335.966736	817.212891	-117.415668	-1420.572632	868.364258	239.385773	-1431.889771	858.731201	-18.579069	-1602.681885	859.963135	115.846130	-1622.175293	1147.577393	107.501122	-1408.640625	1054.703491	104.544930	-1402.209229	478.491913	294.877411	-1388.761108	423.717438	217.652115	-1376.867798	245.758240	247.053329	-1394.582031	56.447399	168.958939	-1449.148682	41.020172	132.653534	-1292.161743	41.605499	147.874084	-1500.861572	459.574677	-76.124672	-1514.783813	400.604034	-27.554731	-1646.562988	268.182922	-56.215729	-1781.736450	168.539566	15.067396	-1807.929321	218.207474	62.317806	-1752.227295	61.269432	25.971807
51	0.50000000	-1466.445312	1264.387451	284.499847	-1482.634766	1293.223267	-53.801968	-1546.613281	1344.567993	117.172920	-1417.353638	1256.246338	108.556725	-1556.014771	973.860962	337.480835	-1459.808105	994.646179	-130.948532	-1505.902710	758.001556	335.779648	-1333.810181	813.675476	-117.460236	-1409.874878	868.976685	240.381027	-1421.063843	859.886658	-17.937056	-1591.911743	860.922180	116.918297	-1611.260132	1148.861694	108.392120	-1397.912476	1055.680664	104.975990	-1397.487793	478.106842	295.086395	-1384.282227	423.424591	217.751831	-1374.158936	245.382812	246.947693	-1394.430664	56.541553	168.767273	-1449.062012	41.177864	132.397125	-1292.071533	41.531242	147.527679	-1481.218628	460.337128	-76.272820	-1492.612549	402.024353	-28.044830	-1624.966309	272.378754	-57.806904	-1760.031494	172.266769	12.713562	-1786.421509	220.855484	60.899384	-1729.293457	65.571671	20.782127
